<?xml version="1.0" encoding="UTF-8" standalone="no"?>
<svg width="90px" height="40px" viewBox="0 0 90 40" version="1.1" xmlns="http://www.w3.org/2000/svg" xmlns:xlink="http://www.w3.org/1999/xlink" xmlns:sketch="http://www.bohemiancoding.com/sketch/ns">
    <!-- Generator: Sketch 3.5.1 (25234) - http://www.bohemiancoding.com/sketch -->
    <title>NBA@3x</title>
    <desc>Created with Sketch.</desc>
    <defs>
        <path id="path-1" d="M0,0.0625797783 L89.9205482,0.0625797783 L89.9205482,39.8076923 L0,39.8076923 L0,0.0625797783 Z"></path>
    </defs>
    <g id="Page-1" stroke="none" stroke-width="1" fill="none" fill-rule="evenodd" sketch:type="MSPage">
        <g id="Desktop" sketch:type="MSArtboardGroup" transform="translate(-166.000000, -31.000000)">
            <g id="navBar" sketch:type="MSLayerGroup">
                <g id="NBA" transform="translate(166.000000, 31.000000)">
                    <path d="M20.3206049,1.80742568 L28.3450662,1.80742568 L34.0012854,21.7759376 L34.2535917,23.2281361 L34.333724,23.2281361 L34.333724,1.80742568 L41.4389603,1.80742568 L41.4389603,38.144374 L33.4553308,38.144374 L27.7023062,16.9779808 L27.5073346,15.6782335 L27.4272023,15.6782335 L27.4272023,38.144374 L20.3206049,38.144374 L20.3206049,1.80742568 Z" id="Fill-1" fill="#FEFEFE" sketch:type="MSShapeGroup"></path>
                    <g id="Group-27">
                        <path d="M52.6844518,16.1793411 L54.9387051,16.1793411 C57.5206333,16.1793411 57.7880813,14.2232015 57.7880813,11.9491219 C57.7880813,9.40334179 57.2535255,7.99216779 55.2495369,7.99216779 L52.6844518,7.99216779 L52.6844518,16.1793411 Z M52.6844518,31.9593537 L55.1163233,31.9593537 C57.8328261,31.9593537 58.1433176,30.5952884 58.1433176,27.0023399 C58.1433176,24.4998441 57.8328261,22.0910442 55.2956427,22.0910442 L52.6844518,22.0910442 L52.6844518,31.9593537 Z M44.2470794,1.80737353 L55.8443195,1.80737353 C61.8093289,1.80737353 64.7010681,4.12734498 64.7010681,10.3575096 C64.7010681,14.1787004 64.1675331,17.5427111 60.2068526,18.9079933 L60.2068526,18.9982125 C64.2122779,19.7253547 65.5917108,22.7735114 65.5917108,27.3666933 C65.5917108,33.4605731 63.4107845,38.1443218 56.1114272,38.1443218 L44.2470794,38.1443218 L44.2470794,1.80737353 Z" id="Fill-2" fill="#FEFEFE" sketch:type="MSShapeGroup"></path>
                        <path d="M77.7161739,8.14162916 L75.6788393,24.4704316 L79.7725633,24.4704316 L77.9041701,8.14267215 L77.8595955,7.29610682 L77.7685747,7.29610682 L77.7161739,8.14162916 Z M72.3842268,1.8075126 L83.2437732,1.8075126 L89.9204461,38.1444609 L81.3301248,38.1444609 L80.5740567,30.1702326 L74.8329414,30.1702326 L73.9867032,38.1444609 L65.7968733,38.1444609 L72.3842268,1.8075126 Z" id="Fill-4" fill="#FEFEFE" sketch:type="MSShapeGroup"></path>
                        <g id="Group-8">
                            <mask id="mask-2" sketch:name="Clip 7" fill="white">
                                <use xlink:href="#path-1"></use>
                            </mask>
                            <g id="Clip-7"></g>
                            <path d="M13.1344197,0.062562395 L4.0262155,0.062562395 C1.8046276,0.062562395 3.40264651e-05,1.90901352 3.40264651e-05,4.17631365 L3.40264651e-05,35.6881872 C3.40264651e-05,37.958964 1.8046276,39.8076749 4.0262155,39.8076749 L13.1279546,39.8076749 C15.3493724,39.8076749 17.1633233,37.958964 17.1633233,35.6881872 L17.1633233,4.17631365 C17.1633233,1.90901352 15.3549868,0.062562395 13.1344197,0.062562395 L13.1344197,0.062562395 Z M9.88080907,6.29689898 C10.1242684,6.25900344 10.4442873,5.70308641 10.7134367,5.12787395 C10.9220189,5.14160673 10.994155,4.93318131 11.0627183,4.81427973 C11.2799773,4.44923102 11.5234367,4.12920499 11.2143062,3.91712907 C11.9188242,2.63198379 11.4669527,1.76160338 11.086707,1.73013965 C10.9329074,1.4068108 10.6639282,1.20394802 10.1953837,1.03411345 L13.1344197,1.03411345 C14.8272363,1.03411345 16.2085406,2.4412893 16.2085406,4.17631365 L16.2085406,19.4007569 C16.1217732,19.173036 16.0082949,18.9564405 15.852794,18.7443645 C15.852794,18.3212557 15.4138526,18.329252 15.293569,18.1717596 C15.1761777,18.0342579 15.4029641,17.9598575 14.6331153,17.7828958 C14.4878223,17.6996299 14.3762155,16.5455545 14.3762155,16.5455545 C14.2676711,15.8086776 14.0049868,15.2979571 13.6204877,14.5143192 C13.4290888,14.1122441 13.3336446,12.8583887 13.1254026,12.2204227 C13.2409225,9.29412269 12.326121,8.4451237 11.5879168,7.96830055 C11.3032854,7.78316871 11.162586,7.64844835 10.8845898,7.47896145 L10.8750624,7.34876075 C10.6584839,7.13946616 10.2222647,6.91452662 9.86430624,6.75060237 C9.75508129,6.63430828 9.80901323,6.38729199 9.88080907,6.29689898 L9.88080907,6.29689898 Z M4.0262155,38.834907 C2.32625331,38.834907 0.949202268,37.4270359 0.949202268,35.6881872 L0.949202268,4.17631365 C0.949202268,2.4412893 2.32625331,1.03411345 4.0262155,1.03411345 L9.22920227,1.03411345 C8.22269943,1.42419407 8.08131947,1.87146565 8.04593195,3.29220045 C7.87613989,3.31062672 7.518862,3.1463548 7.64169754,4.01117257 C7.64169754,4.01117257 7.70651796,4.58760186 7.9351758,4.48695272 C7.71689603,6.00625067 7.96835161,6.12532608 6.42525142,6.19364234 L6.34528922,6.30419995 C4.80950473,6.4580419 4.3241172,6.25709128 3.03009074,8.95949471 C3.03009074,8.95949471 2.69135728,9.79371792 2.59404159,10.139645 C2.27215123,10.8264581 1.49430624,12.3401934 1.26020416,13.3174809 C1.1809225,13.6495014 1.03648015,13.7546702 1.24693384,14.2330579 C1.54721739,14.9247382 1.04685822,15.1062196 2.78714178,15.0556343 L2.78714178,15.4620552 C2.78714178,15.4620552 2.32268053,15.8705621 2.22944802,16.1194905 C2.12651796,16.3630301 1.85889981,17.594635 1.87217013,18.1681091 C1.90024197,19.6875809 3.11379584,20.957255 3.47396597,22.4720333 L4.2740983,22.5871106 C4.72818147,23.636191 6.69729301,26.4851355 7.09965595,26.8613095 C7.19782231,27.1250137 7.69035539,27.4512977 7.98281285,27.7775817 C8.22269943,28.0108652 9.64415501,29.5986533 11.3117921,30.5769838 C11.3032854,30.5761146 11.5794102,31.1466336 11.7160265,31.6012062 C11.162586,32.0554311 12.2327183,32.8882636 12.558862,34.2646711 C12.5806389,34.4451094 12.2519433,34.6333703 12.7415841,35.0844662 C12.7073875,37.1652438 12.0920189,38.2605637 13.1344197,38.834907 L4.0262155,38.834907 Z M16.2085406,35.6881872 C16.2085406,37.2731939 15.0931531,38.5640757 13.6204877,38.7970115 L13.5917353,38.7970115 C14.9408847,37.9673079 14.1079168,36.3779554 13.8498261,35.4446475 C13.8311115,35.3930192 13.8726238,35.3250506 13.8932098,35.2798541 C13.9646654,35.1498273 13.8190321,34.8565715 13.8190321,34.8565715 C13.6602987,34.7070753 13.6143629,33.9309122 13.5267448,33.578901 C13.3824726,32.9866529 13.7787108,31.9737297 13.7787108,31.6276287 C13.7787108,31.2841353 13.5267448,30.806443 13.0588809,30.2042864 C12.9467637,30.0733904 12.6112628,27.1213632 12.3102987,26.3707535 C11.8909225,25.3407947 11.7592401,25.5014161 11.2701096,24.2758954 C10.8811871,23.4067319 11.1841928,22.1307997 10.3173686,19.1657351 C10.3251947,19.1777295 10.5111493,18.9812985 10.5111493,18.9812985 C10.5111493,18.9812985 9.82466541,16.4125725 9.59975047,15.7109836 C9.37228355,15.0047013 8.97706616,14.9567235 8.97706616,14.9567235 C8.97706616,14.9567235 8.97893762,14.668335 8.99510019,14.5953252 C9.02895652,14.479205 9.83266163,12.3348046 9.90054442,12.2677052 C9.90292628,12.2204227 11.0647599,11.4138388 11.086707,11.5289161 C11.1841928,12.0563246 11.6367448,14.7227446 11.8242306,15.1514161 C12.022775,15.5800876 12.6907146,16.8892218 13.0069905,17.6996299 C11.8033043,17.995667 10.9099395,19.1040244 10.9099395,20.4270653 C10.9099395,21.9748718 12.134552,23.2297702 13.6541739,23.2297702 C14.8151569,23.2297702 15.8092401,22.4984559 16.2085406,21.4634559 L16.2085406,35.6881872 Z" id="Fill-6" fill="#FEFEFE" sketch:type="MSShapeGroup" mask="url(#mask-2)"></path>
                        </g>
                        <path d="M12.7428091,35.0845009 C12.2482344,34.633405 12.5786314,34.4428844 12.558896,34.2647058 C12.2325822,32.8882984 11.16262,32.0554658 11.7160605,31.6012409 C11.5794442,31.1466684 11.3016181,30.5759756 11.3118261,30.5768447 C9.64418904,29.5985142 8.22392439,28.0091617 7.98284688,27.7758781 C7.69038941,27.4513325 7.19207183,27.1250485 7.09849905,26.8611704 C6.69783743,26.4851702 4.73195841,23.6362258 4.27413233,22.5869715 L3.47655198,22.4718943 C3.11365974,20.957116 1.90214745,19.6876156 1.87220416,18.1688392 C1.86063516,17.5946697 2.12655198,16.3648032 2.22590926,16.1195253 C2.32271456,15.8705968 2.78700567,15.4620899 2.78700567,15.4620899 L2.78700567,15.055669 C1.04689225,15.1062544 1.54725142,14.924773 1.24696786,14.2330926 C1.03651418,13.754705 1.18759168,13.6495362 1.26330057,13.3175157 C1.49672212,12.3376207 2.27252552,10.8264929 2.59339509,10.1396798 C2.6913913,9.79288352 3.02706238,8.95761732 3.02706238,8.95761732 C4.32415123,6.25903821 4.80834783,6.45720751 6.34889603,6.30510388 L6.42477505,6.19367711 C7.96838563,6.12536085 7.71573913,6.00628544 7.93350851,4.48681365 C7.70842344,4.58555064 7.64173157,4.01120734 7.64173157,4.01120734 C7.51889603,3.14638957 7.87566352,3.31048766 8.04528544,3.29293055 C8.0813535,1.87150042 8.22392439,1.42422884 9.22736484,1.03240989 L4.02795085,1.03240989 C2.32696786,1.03240989 0.949236295,2.44132407 0.949236295,4.17826058 L0.949236295,35.688222 C0.949236295,37.4270706 2.32696786,38.835811 4.02795085,38.835811 L13.1344537,38.835811 C12.0920529,38.2604247 12.7074216,37.1645832 12.7428091,35.0845009 L12.7428091,35.0845009 Z" id="Fill-9" fill="#006BB6" sketch:type="MSShapeGroup"></path>
                        <path d="M7.12313422,34.5755709 L6.78389036,34.5755709 L6.78389036,35.8551535 L7.10152741,35.8551535 C7.44859735,35.8551535 7.49181096,35.6818423 7.49181096,35.2133631 C7.49181096,34.884124 7.44859735,34.5755709 7.12313422,34.5755709" id="Fill-11" fill="#006BB6" sketch:type="MSShapeGroup"></path>
                        <path d="M7.07852552,33.8102897 C7.41249527,33.8102897 7.44243856,33.5530173 7.44243856,33.2609783 C7.44243856,32.9268719 7.37761815,32.7471288 7.11646503,32.7471288 L6.78572779,32.7471288 L6.78572779,33.8102897 L7.07852552,33.8102897 Z" id="Fill-13" fill="#006BB6" sketch:type="MSShapeGroup"></path>
                        <path d="M10.0592439,32.7700226 L10.0488658,32.6539023 L10.0364461,32.6539023 L10.031172,32.7700226 L9.7657656,34.8833069 L10.2975992,34.8833069 L10.0592439,32.7700226 Z" id="Fill-15" fill="#006BB6" sketch:type="MSShapeGroup"></path>
                        <path d="M10.8750964,7.34876075 L10.8846238,7.48330727 C11.1624499,7.64844835 11.3033195,7.78316871 11.583017,7.96760522 C12.3259849,8.4451237 13.2409565,9.29412269 13.1254367,12.2204227 C13.3336786,12.8583887 13.4257202,14.1122441 13.6181399,14.5143192 C14.0048507,15.2979571 14.2631115,15.8079823 14.3762495,16.548162 C14.3762495,16.548162 14.4878563,17.6996299 14.6329792,17.7828958 C15.4011267,17.9598575 15.179104,18.0372131 15.2915614,18.1717596 C15.4108242,18.329252 15.854189,18.321951 15.854189,18.7443645 C16.0081588,18.9545283 16.1218072,19.173036 16.2085747,19.4007569 L16.2085747,4.17648749 C16.2085747,2.4412893 14.8271002,1.03254896 13.1344537,1.03254896 L10.1916749,1.03254896 C10.6644726,1.20394802 10.9310699,1.4068108 11.086741,1.72840133 C11.4669868,1.76160338 11.9188582,2.63198379 11.2148507,3.91712907 C11.5265331,4.12920499 11.283414,4.4464497 11.05969,4.81427973 C10.994189,4.93248598 10.9225633,5.14160673 10.7144915,5.12787395 C10.4472136,5.70204342 10.1243025,6.25900344 9.88067297,6.29411765 C9.80666541,6.38729199 9.75307372,6.63430828 9.86434026,6.75060237 C10.2222987,6.91470045 10.6590284,7.13946616 10.8750964,7.34876075" id="Fill-17" fill="#ED174C" sketch:type="MSShapeGroup"></path>
                        <path d="M16.2085066,21.4634211 C15.809206,22.4984211 14.815293,23.2297354 13.6541399,23.2297354 C12.134518,23.2297354 10.9099055,21.974837 10.9099055,20.4270305 C10.9099055,19.1048588 11.7995274,17.9956323 13.0069565,17.699769 C12.6906805,16.8910992 12.022741,15.5800528 11.8241966,15.149643 C11.6367108,14.7227099 11.1841588,12.0562898 11.086673,11.5290552 C11.0647259,11.4139779 9.90289225,12.2177804 9.9005104,12.2676704 C9.8326276,12.3347698 9.0289225,14.4791702 8.99523629,14.5952905 C8.97890359,14.6683002 8.97703214,14.9549504 8.97703214,14.9549504 C8.97703214,14.9549504 9.37224953,15.0048404 9.59971645,15.7092105 C9.82463138,16.4125377 10.5111153,18.9814376 10.5111153,18.9814376 C10.5111153,18.9814376 10.3251607,19.1776947 10.3175047,19.1657003 C11.1841588,22.1307649 10.8811531,23.4068709 11.2702457,24.2760345 C11.759206,25.5015552 11.8910586,25.3409337 12.3102647,26.3707188 C12.6112287,27.1213284 12.9467297,30.0733556 13.0588469,30.2042517 C13.5267108,30.8102325 13.7786767,31.2841005 13.7786767,31.6260295 C13.7786767,31.9698706 13.3824386,32.9866182 13.5267108,33.5788662 C13.6144991,33.9270532 13.6602647,34.7082574 13.8191682,34.8565367 C13.8191682,34.8565367 13.9646314,35.1497925 13.8931758,35.2798194 C13.8725898,35.3250159 13.8310775,35.3929845 13.8497921,35.4465249 C14.1078828,36.3779206 14.9408507,37.9655349 13.5918715,38.7969767 L13.6206238,38.7969767 C15.0931191,38.5640409 16.2085066,37.2731591 16.2085066,35.6881524 L16.2085066,21.4634211 Z" id="Fill-19" fill="#ED174C" sketch:type="MSShapeGroup"></path>
                        <path d="M5.32628166,31.9449951 L4.40892817,31.9449951 L4.40892817,34.7237111 L4.39327599,34.7237111 L4.3643535,34.535798 L3.63108318,31.9449951 L2.58613043,31.9449951 L2.58613043,36.6589908 L3.51011909,36.6589908 L3.51011909,33.7427731 L3.52151796,33.7427731 L3.54788847,33.9126077 L4.29323819,36.6589908 L5.32628166,36.6589908 L5.32628166,31.9449951 Z" id="Fill-21" fill="#FEFEFE" sketch:type="MSShapeGroup"></path>
                        <path d="M7.76187902,34.1751124 L7.76187902,34.1643348 C8.27516824,33.9842441 8.34203025,33.551053 8.34203025,33.0580634 C8.34203025,32.2474814 7.96841966,31.9450125 7.19584877,31.9450125 L5.6939206,31.9450125 L5.6939206,36.6579651 L7.23327788,36.6579651 C8.17768242,36.6579651 8.45925142,36.0495506 8.45925142,35.2594809 C8.45925142,34.6637562 8.28044234,34.2729803 7.76187902,34.1751124 L7.76187902,34.1751124 Z M6.78565974,32.7470767 L7.11588658,32.7470767 C7.37772023,32.7470767 7.44237051,32.9315132 7.44237051,33.2645767 C7.44237051,33.5557465 7.41242722,33.8102376 7.07845747,33.8102376 L6.78565974,33.8102376 L6.78565974,32.7470767 Z M7.10142533,35.8552057 L6.78565974,35.8552057 L6.78565974,34.5771875 L7.12320227,34.5771875 C7.44866541,34.5771875 7.49187902,34.8833069 7.49187902,35.2134153 C7.49187902,35.678244 7.44866541,35.8552057 7.10142533,35.8552057 L7.10142533,35.8552057 Z" id="Fill-23" fill="#FEFEFE" sketch:type="MSShapeGroup"></path>
                        <path d="M10.7474121,31.9449951 L9.33990737,31.9449951 L8.48431191,36.6589908 L9.54661815,36.6589908 L9.6611172,35.6246861 L10.4008526,35.6246861 L10.5032722,36.6589908 L11.6115142,36.6589908 L10.7474121,31.9449951 Z M9.76506805,34.8832896 L10.031155,32.7700052 L10.0381304,32.653885 L10.0490189,32.653885 L10.0592268,32.7700052 L10.2992836,34.8832896 L9.76506805,34.8832896 Z" id="Fill-25" fill="#FEFEFE" sketch:type="MSShapeGroup"></path>
                    </g>
                </g>
            </g>
        </g>
    </g>
</svg>